#!OML:ASF F:\VICON\USERDATA\INSTALL\Justin_Nancy\Justin_Nancy.ASF
:FULLY-SPECIFIED
:DEGREES
49
root -9.21907 16.7603 -19.4075 2.20526 -12.5622 -5.26601
lowerback 5.62175 2.1691 3.2078
upperback 0.00745025 3.20224 3.35634
thorax -3.1621 1.5657 1.40191
lowerneck -15.6187 -2.84956 -9.10785
upperneck 21.5277 -2.7944 4.88385
head 9.58981 -1.50683 2.86086
rclavicle -8.24956e-015 3.97569e-015
rhumerus -23.8604 -0.327044 -81.6006
rradius 52.2831
rwrist -4.07805
rhand -20.9824 8.31556
rfingers 7.12502
rthumb 5.39135 -21.5959
lclavicle -8.24956e-015 3.97569e-015
lhumerus -45.1339 11.9662 82.7262
lradius 20.3572
lwrist -15.6603
lhand -11.527 26.4168
lfingers 7.12502
lthumb 14.5128 55.8892
rfemur 18.6438 6.51582 27.7904
rtibia 21.521
rfoot -11.3823 0.23029
rtoes -16.3719
lfemur -34.0687 -3.78198 -9.5031
ltibia 20.1643
lfoot -5.46576 8.32061
ltoes -12.6361
50
root -9.20519 16.7642 -19.0929 1.89913 -12.537 -5.12761
lowerback 5.52313 2.17736 3.21421
upperback 0.0115694 3.20551 3.27605
thorax -3.09734 1.56749 1.31923
lowerneck -15.3069 -2.86226 -9.10739
upperneck 21.5765 -2.85192 4.91393
head 9.55344 -1.53487 2.86589
rclavicle 2.16675e-014 -2.34566e-014
rhumerus -24.2855 -0.735713 -81.5833
rradius 52.8765
rwrist -4.42066
rhand -21.3019 7.84187
rfingers 7.12502
rthumb 5.08288 -22.0772
lclavicle 2.16675e-014 -2.34566e-014
lhumerus -45.4202 12.2615 82.4176
lradius 19.8987
lwrist -15.7707
lhand -11.5419 26.4778
lfingers 7.12502
lthumb 14.4984 55.9512
rfemur 18.6874 6.30096 27.2335
rtibia 23.3703
rfoot -9.61347 1.35641
rtoes -17.5401
lfemur -34.1736 -3.02753 -10.3696
ltibia 22.0886
lfoot -2.54449 6.01734
ltoes -17.5285
51
root -9.19413 16.7718 -18.7901 1.61862 -12.4623 -5.26328
lowerback 5.70109 2.12306 3.28092
upperback -0.0624264 3.15609 3.42811
thorax -3.27924 1.54051 1.43464
lowerneck -15.0546 -2.77301 -9.34369
upperneck 21.9105 -2.70337 4.92852
head 9.6166 -1.49226 2.93577
rclavicle 3.1731e-014 3.18055e-014
rhumerus -24.8737 -0.850634 -81.372
rradius 53.4669
rwrist -4.96605
rhand -20.174 9.98819
rfingers 7.12502
rthumb 6.17179 -19.9019
lclavicle 3.1731e-014 3.18055e-014
lhumerus -45.7064 13.2352 81.9127
lradius 19.3101
lwrist -16.5446
lhand -11.2862 26.7087
lfingers 7.12502
lthumb 14.7448 56.1643
rfemur 18.4063 6.21773 27.1017
rtibia 25.7029
rfoot -6.91518 2.29877
rtoes -16.5231
lfemur -34.4115 -2.11215 -10.8861
ltibia 24.2524
lfoot -0.123593 4.02555
ltoes -18.7505
52
root -9.18194 16.7633 -18.494 1.34073 -12.137 -5.03286
lowerback 6.00351 2.03717 2.98446
upperback -0.263327 3.0496 3.43853
thorax -3.6732 1.48839 1.60469
lowerneck -15.2464 -2.55981 -9.42093
upperneck 22.7904 -2.41207 5.0355
head 9.9429 -1.36422 3.03884
rclavicle 4.34593e-014 3.37934e-014
rhumerus -25.6275 -1.3172 -81.1386
rradius 53.9138
rwrist -5.4305
rhand -19.0364 11.4953
rfingers 7.12502
rthumb 7.27 -18.3599
lclavicle 4.34593e-014 3.37934e-014
lhumerus -46.0101 14.2637 81.1712
lradius 18.5486
lwrist -17.225
lhand -11.4076 26.9528
lfingers 7.12502
lthumb 14.6278 56.4169
rfemur 17.6949 5.96841 26.6176
rtibia 28.559
rfoot -3.03957 3.22311
rtoes -12.7833
lfemur -34.7154 -1.23053 -11.8384
ltibia 26.5075
lfoot 0.188632 1.57633
ltoes -15.8368
53
root -9.17267 16.7536 -18.2035 0.988238 -11.6605 -4.32707
lowerback 6.16402 1.92229 2.25962
upperback -0.41934 2.85348 3.24411
thorax -3.94837 1.40186 1.81786
lowerneck -14.9845 -2.84141 -9.37213
upperneck 22.7395 -2.8082 4.87826
head 9.90608 -1.56373 2.92195
rclavicle -1.07592e-014 1.19271e-014
rhumerus -26.4909 -1.95427 -81.0898
rradius 54.3652
rwrist -5.72129
rhand -18.4732 11.8366
rfingers 7.12502
rthumb 7.81359 -17.9991
lclavicle -1.07592e-014 1.19271e-014
lhumerus -46.094 15.1231 80.41
lradius 17.7677
lwrist -17.805
lhand -11.2417 27.3252
lfingers 7.12502
lthumb 14.7876 56.7776
rfemur 16.5348 5.58103 25.6032
rtibia 31.9667
rfoot 1.13985 3.98464
rtoes -9.85728
lfemur -34.9255 -0.752089 -13.188
ltibia 28.6546
lfoot 0.886264 -1.65071
ltoes -12.6735
54
root -9.16968 16.7463 -17.9226 0.608698 -11.223 -3.52621
lowerback 6.30284 1.85586 1.371
upperback -0.393667 2.69554 3.02099
thorax -4.02643 1.34023 2.09495
lowerneck -14.9706 -2.99009 -9.53016
upperneck 22.7147 -3.04839 5.15967
head 9.92065 -1.65652 3.01663
rclavicle -3.52967e-014 4.37326e-015
rhumerus -26.9869 -2.57789 -81.074
rradius 54.6835
rwrist -5.81977
rhand -18.172 12.0505
rfingers 7.12502
rthumb 8.1043 -17.7741
lclavicle -3.52967e-014 4.37326e-015
lhumerus -45.8506 15.8758 79.7906
lradius 17.319
lwrist -18.5527
lhand -10.3783 29.084
lfingers 7.12502
lthumb 15.6193 58.4734
rfemur 15.0881 5.40263 24.565
rtibia 35.7421
rfoot 5.30339 4.54772
rtoes -7.47921
lfemur -34.9745 -0.451312 -14.5421
ltibia 30.5616
lfoot 1.07611 -4.24768
ltoes -8.10466
55
root -9.16716 16.7362 -17.6452 -0.00681471 -11.1777 -2.63512
lowerback 6.72172 1.9541 0.384426
upperback -0.287538 2.74876 2.77621
thorax -4.18752 1.38507 2.37719
lowerneck -15.1075 -3.10652 -9.65951
upperneck 22.7483 -3.23301 5.42768
head 9.98033 -1.72135 3.1094
rclavicle -2.50096e-014 -2.34566e-014
rhumerus -27.3242 -3.47898 -80.9944
rradius 54.5534
rwrist -5.68121
rhand -18.6312 12.0355
rfingers 7.12502
rthumb 7.66109 -17.8057
lclavicle -2.50096e-014 -2.34566e-014
lhumerus -45.5914 17.0941 78.7342
lradius 16.6491
lwrist -20.0054
lhand -9.28447 30.5385
lfingers 7.12502
lthumb 16.6726 59.8424
rfemur 13.6863 5.59355 23.4416
rtibia 39.7032
rfoot 9.06454 5.12554
rtoes -3.06065
lfemur -34.5055 -0.137624 -15.9038
ltibia 32.2645
lfoot 0.526577 -5.06223
ltoes -6.6641
56
root -9.16207 16.7403 -17.3633 -0.605836 -11.1853 -1.85848
lowerback 6.96163 2.08601 -0.274641
upperback -0.18234 2.85781 2.41784
thorax -4.23103 1.44901 2.35711
lowerneck -14.8264 -3.27646 -9.58067
upperneck 22.4635 -3.55692 5.6025
head 9.85394 -1.84468 3.11222
rclavicle 3.51352e-014 3.18055e-015
rhumerus -27.8182 -4.79071 -81.0668
rradius 54.3295
rwrist -5.4101
rhand -19.5613 11.1784
rfingers 7.12502
rthumb 6.76328 -18.6935
lclavicle 3.51352e-014 3.18055e-015
lhumerus -45.4093 18.0905 77.4389
lradius 15.917
lwrist -21.479
lhand -9.45719 29.3904
lfingers 7.12502
lthumb 16.5063 58.7083
rfemur 12.1498 5.74469 22.4136
rtibia 43.6633
rfoot 11.678 5.89956
rtoes 2.60351
lfemur -33.8935 0.0750656 -17.1027
ltibia 33.8284
lfoot -0.287636 -4.91421
ltoes -6.54666
57
root -9.15251 16.7478 -17.0866 -0.946979 -11.1686 -1.44327
lowerback 7.07247 2.14119 -0.482514
upperback -0.0488831 2.90296 2.19422
thorax -4.15501 1.47201 2.23526
lowerneck -14.793 -3.37297 -9.67276
upperneck 22.1813 -3.70436 5.77014
head 9.76515 -1.89879 3.16347
rclavicle -7.16867e-015 -7.95139e-015
rhumerus -28.1629 -5.58439 -81.1563
rradius 54.0629
rwrist -5.2963
rhand -20.145 10.9904
rfingers 7.12502
rthumb 6.19983 -18.8989
lclavicle -7.16867e-015 -7.95139e-015
lhumerus -45.2081 18.9556 76.5946
lradius 15.7281
lwrist -22.6864
lhand -9.83763 28.4324
lfingers 7.12502
lthumb 16.14 57.7804
rfemur 10.311 5.71357 21.7118
rtibia 47.5669
rfoot 13.1692 6.55431
rtoes 9.08638
lfemur -33.4169 0.27657 -17.9255
ltibia 35.2128
lfoot -1.29636 -4.9438
ltoes -4.74894
58
root -9.13833 16.7594 -16.817 -1.39156 -11.2878 -1.20773
lowerback 7.41537 2.21864 -0.487367
upperback 0.121117 2.99791 2.04486
thorax -4.16716 1.51599 2.06331
lowerneck -14.9868 -3.29685 -9.73535
upperneck 22.2075 -3.59649 5.91149
head 9.80483 -1.83552 3.23799
rclavicle 2.33945e-014 -1.78906e-014
rhumerus -28.4752 -6.28137 -81.2163
rradius 53.7073
rwrist -5.13032
rhand -20.3327 11.2812
rfingers 7.12502
rthumb 6.0186 -18.6133
lclavicle 2.33945e-014 -1.78906e-014
lhumerus -44.9946 19.4831 76.1557
lradius 15.8443
lwrist -23.4061
lhand -10.1502 28.0405
lfingers 7.12502
lthumb 15.839 57.4126
rfemur 8.56587 5.7728 21.2239
rtibia 51.3232
rfoot 13.7338 6.58975
rtoes 13.7553
lfemur -32.6297 0.52689 -18.5714
ltibia 36.3856
lfoot -2.42718 -5.30727
ltoes -3.05157
59
root -9.12683 16.7788 -16.5519 -1.83737 -11.3974 -0.895576
lowerback 7.7882 2.2681 -0.688001
upperback 0.229647 3.04168 1.95204
thorax -4.27077 1.53998 2.06272
lowerneck -15.1097 -3.20198 -9.70206
upperneck 22.3467 -3.4242 5.75523
head 9.85924 -1.77024 3.20136
rclavicle -2.80038e-014 -1.86858e-014
rhumerus -28.9379 -6.6363 -81.2555
rradius 53.4715
rwrist -5.29784
rhand -20.6868 10.8418
rfingers 7.12502
rthumb 5.67678 -19.0622
lclavicle -2.80038e-014 -1.86858e-014
lhumerus -44.9819 19.7222 76.0929
lradius 16.3749
lwrist -23.4031
lhand -10.4565 28.0751
lfingers 7.12502
lthumb 15.544 57.4704
rfemur 6.79791 5.79242 20.6901
rtibia 54.8532
rfoot 13.4516 5.66926
rtoes 14.3314
lfemur -31.7163 0.682727 -19.2668
ltibia 37.3239
lfoot -3.32482 -5.69301
ltoes -1.4204
60
root -9.11336 16.7992 -16.2869 -2.11684 -11.3818 -0.228615
lowerback 7.90712 2.25857 -1.16411
upperback 0.290021 2.97537 1.72246
thorax -4.28367 1.51388 2.09613
lowerneck -15.0114 -3.156 -9.55616
upperneck 22.1145 -3.33006 5.47482
head 9.74322 -1.74375 3.0862
rclavicle -9.82742e-015 -1.39149e-014
rhumerus -29.3561 -6.89258 -81.3699
rradius 53.1503
rwrist -5.37982
rhand -20.5895 10.7416
rfingers 7.12502
rthumb 5.77066 -19.1598
lclavicle -9.82742e-015 -1.39149e-014
lhumerus -44.8056 19.0483 76.7431
lradius 17.3091
lwrist -21.9982
lhand -10.3109 28.5912
lfingers 7.12502
lthumb 15.6842 57.9756
rfemur 4.82009 5.55476 19.6767
rtibia 58.1298
rfoot 12.3705 4.50387
rtoes 12.0039
lfemur -30.9374 0.60262 -20.3572
ltibia 38.0322
lfoot -3.83371 -5.30779
ltoes -0.475638
61
root -9.10021 16.8243 -16.0219 -2.33017 -11.377 0.360486
lowerback 7.68034 2.26249 -1.45678
upperback 0.504616 2.94292 1.45733
thorax -3.93238 1.49685 2.00218
lowerneck -15.1019 -3.14656 -9.44558
upperneck 21.9954 -3.29671 5.33181
head 9.71109 -1.73183 3.01898
rclavicle -2.4612e-014 -1.11319e-014
rhumerus -29.2719 -7.49126 -81.5595
rradius 52.3855
rwrist -5.07363
rhand -20.3232 10.6259
rfingers 7.12502
rthumb 6.02776 -19.2683
lclavicle -2.4612e-014 -1.11319e-014
lhumerus -44.1703 18.4716 77.3176
lradius 17.8566
lwrist -20.82
lhand -9.89131 29.2863
lfingers 7.12502
lthumb 16.0883 58.6384
rfemur 2.77173 5.2847 18.7375
rtibia 61.0665
rfoot 10.7922 2.94021
rtoes 9.77835
lfemur -30.0957 0.333238 -21.312
ltibia 38.5033
lfoot -4.3328 -4.28898
ltoes 0.878899
62
root -9.09739 16.8566 -15.7586 -2.50262 -11.4347 0.710517
lowerback 7.51554 2.21137 -1.79375
upperback 0.593 2.84575 1.41152
thorax -3.75785 1.45198 2.1627
lowerneck -15.1157 -3.03428 -9.50495
upperneck 22.1734 -3.07593 5.12384
head 9.75721 -1.66018 2.98687
rclavicle -2.67987e-014 9.93923e-015
rhumerus -29.3817 -7.60619 -81.7263
rradius 51.6026
rwrist -4.77629
rhand -20.6619 10.5352
rfingers 7.12502
rthumb 5.70076 -19.3682
lclavicle -2.67987e-014 9.93923e-015
lhumerus -43.8194 18.146 77.8134
lradius 18.3497
lwrist -19.6953
lhand -9.5751 30.1108
lfingers 7.12502
lthumb 16.3928 59.4381
rfemur 0.792042 5.08383 18.1627
rtibia 63.6239
rfoot 9.07417 0.829761
rtoes 8.6969
lfemur -29.134 0.0297913 -21.9428
ltibia 38.7679
lfoot -5.19984 -3.69745
ltoes 1.39078
63
root -9.09192 16.8851 -15.5037 -2.64274 -11.2426 1.02065
lowerback 7.6814 2.01959 -2.14189
upperback 0.506829 2.5598 1.44048
thorax -3.94178 1.31888 2.41321
lowerneck -15.0777 -2.82825 -9.76775
upperneck 22.416 -2.71738 5.07735
head 9.81092 -1.52629 3.06556
rclavicle -2.79541e-015 2.78299e-015
rhumerus -29.6552 -7.2697 -81.8422
rradius 50.7935
rwrist -4.67208
rhand -20.6103 10.4622
rfingers 7.12502
rthumb 5.75062 -19.4398
lclavicle -2.79541e-015 2.78299e-015
lhumerus -43.6124 17.313 78.7078
lradius 18.967
lwrist -17.899
lhand -10.0109 29.7829
lfingers 7.12502
lthumb 15.9731 59.1443
rfemur -1.18715 4.50621 17.5556
rtibia 65.8626
rfoot 7.22924 -1.25259
rtoes 8.84172
lfemur -28.1451 -0.639875 -22.5315
ltibia 38.9185
lfoot -6.0127 -3.17672
ltoes 1.96238
